<?xml version="1.0" encoding="utf-8"?>
<!-- Generator: Adobe Illustrator 24.2.0, SVG Export Plug-In . SVG Version: 6.00 Build 0)  -->
<svg version="1.1" id="圖層_1" xmlns="http://www.w3.org/2000/svg" xmlns:xlink="http://www.w3.org/1999/xlink" x="0px" y="0px"
	 viewBox="0 0 135.6 200" style="enable-background:new 0 0 135.6 200;" xml:space="preserve">
<style type="text/css">
	.st0{fill:#891D16;}
	.st1{fill:#FFFFFF;}
</style>
<path class="st0" d="M67.8,200C30.4,200,0,169.6,0,132.2V67.8C0,30.4,30.4,0,67.8,0s67.8,30.4,67.8,67.8v64.4
	C135.6,169.6,105.3,200,67.8,200z M67.8,16.3c-4,0-7.2,3.2-7.2,7.2s3.2,7.2,7.2,7.2s7.2-3.2,7.2-7.2S71.8,16.3,67.8,16.3z"/>
<g>
	<path class="st1" d="M7.3,66.4l10.2-1.7V53.1h6.7v10.4l16.7-2.9l1,5.8l-17.7,3v8.1c-0.2,2.3,0.8,3.3,3.1,3.1h4.1
		c1.9,0.2,2.9-0.8,3-2.9c0.1-0.3,0.2-1.3,0.3-2.5c0.2-1.4,0.3-2.2,0.3-2.5c0.1,0,0.3,0.1,0.4,0.2c2.6,0.8,4.6,1.4,6,1.9
		c-0.3,2.6-0.8,4.8-1.1,6.4c-0.5,3.6-3.3,5.3-8.4,5.1h-6.4c-5.5,0.1-8.1-2.5-7.9-7.7v-7.9l-9.2,1.5L7.3,66.4z"/>
	<path class="st1" d="M20.8,96.7h5.5v1.4h13.5v3.8H26.3v1.3h15.3l-0.8,7.4c-0.5-0.1-1.1-0.2-2-0.3c-1.3-0.3-2.2-0.5-3-0.6l0.4-2.3
		H15.8v5.7c0,4.2-0.3,7.6-0.8,10c-0.7,2.4-1.9,5-3.7,7.8c-1.4-1.4-2.7-2.6-4.1-4c2.4-3.2,3.5-7.9,3.3-14v-9.7h10.4
		C20.8,103.3,20.8,96.7,20.8,96.7z M36.8,124.5c0.2-0.9,0.3-2.1,0.4-3.5c1.9,0.7,3.5,1.1,4.6,1.3c-0.3,2.3-0.7,3.8-1,4.6
		c-0.3,2.2-1.8,3.3-4.2,3.3h-3.8c-2.7,0.1-4.1-1.4-4.1-4.4v-2.5h-5c0,3.2-2,5.8-6.1,7.8c-1.1-1.1-2.5-2.3-3.8-3.5
		c3.7-1.1,5.3-3.6,5-7.4V119H34v5.5c0,0.8,0.3,1.1,1,1.1h0.7C36.3,125.6,36.6,125.2,36.8,124.5z M21.5,108h5.2v1.3l7.5-0.4l0.3,3.7
		l-7.8,0.4c-0.1,0.9,0.8,1.4,2.5,1.3h4c1.1,0,1.8-0.3,1.9-1.1c0.1-0.3,0.2-0.9,0.3-1.7c0.1-0.3,0.2-0.7,0.2-0.8
		c1.6,0.3,3.1,0.8,4.6,1.3c-0.2,1-0.5,2.2-0.8,3.4c-0.6,1.8-2.1,2.7-4.6,2.7h-8.9c-3,0-4.4-1.5-4.4-4.6v-0.2l-4.6,0.3l-0.3-3.6
		l5-0.3V108z"/>
	<path class="st1" d="M50.6,128.4c-0.4,0-0.8-0.2-1.1-0.4s-0.4-0.8-0.6-1.4c-0.3-1.6-0.8-2.9-1.5-3.8c-0.7-0.9-1.5-1.7-2.5-2.4
		l0.8-1c0.7,0.3,1.4,0.6,2.2,1.1c0.8,0.5,1.5,1.2,2.2,1.9c0.7,0.8,1.3,1.4,1.7,2.2c0.4,0.8,0.7,1.4,0.7,2.1
		C52.5,127.8,51.9,128.4,50.6,128.4z"/>
	<path class="st1" d="M72.8,96.7h6v2.9h14v4.8h-14v1.7h13v19.2c0,3.3-1.5,5-4.6,5.1c-1.4,0.1-3.4,0.2-6.3,0.2
		c-0.3-1.7-0.6-3.3-1-4.8c1,0,2.3,0,3.8,0c1.7,0.1,2.5-0.7,2.5-2.5v-12.5H65.9v19.6h-5.7V106h12.6v-1.7H59.1v-4.8h13.8V96.7z
		 M78.4,110.9l5.4,0.4l-1.4,2.5h2.5v4.2h-6.3v1.4h6.8v4.4h-6.8v5.5h-5.4V124h-6.8v-4.4h6.8v-1.4H67v-4.2h2.5l-1.4-2.5l5.4-0.4l1.5,3
		h1.7L78.4,110.9z"/>
	<path class="st1" d="M95.4,98.6h33.8v5.8h-14.9v6.8l2.7-3.1c4.1,2.9,7.9,5.7,11.3,8.4l-4.1,5c-3.7-3.1-7-5.7-10-7.9v16.9h-6.5v-26
		H95.4L95.4,98.6L95.4,98.6z"/>
	<g>
		<path class="st1" d="M22.7,140.4c0.3,0,0.6,0.1,0.8,0.2c0.3,0.1,0.3,0.2,0.5,0.3c0.3,0.2,0.4,0.1,0.4-0.4h0.3c0,0.3,0,0.5,0,0.8
			c0,0.3,0,0.7,0,1.2h-0.3c-0.1-0.3-0.1-0.6-0.3-0.8c-0.1-0.3-0.3-0.5-0.5-0.7c-0.3-0.2-0.5-0.3-0.8-0.3c-0.3,0-0.5,0.1-0.7,0.3
			c-0.2,0.2-0.3,0.3-0.3,0.7c0,0.3,0.1,0.4,0.2,0.6c0.2,0.2,0.3,0.3,0.5,0.4c0.3,0.2,0.5,0.3,0.8,0.5c0.3,0.2,0.6,0.3,0.8,0.6
			s0.4,0.4,0.6,0.7c0.2,0.3,0.3,0.5,0.3,0.8s-0.1,0.7-0.3,0.9c-0.2,0.3-0.4,0.4-0.8,0.5s-0.6,0.2-1,0.2c-0.2,0-0.3,0-0.5,0
			s-0.3-0.1-0.4-0.1c-0.1,0-0.2-0.1-0.3-0.2c-0.1-0.1-0.2-0.1-0.3-0.2c-0.1-0.1-0.2-0.1-0.2,0c-0.1,0.1-0.1,0.2-0.2,0.4h-0.3
			c0-0.3,0-0.5,0-0.9c0-0.3,0-0.8,0-1.4h0.3c0.1,0.4,0.2,0.8,0.3,1.1c0.1,0.3,0.3,0.6,0.5,0.8s0.5,0.3,0.9,0.3c0.2,0,0.3,0,0.5-0.1
			s0.3-0.2,0.4-0.3c0.1-0.2,0.2-0.3,0.2-0.7c0-0.3-0.1-0.6-0.3-0.8c-0.3-0.3-0.6-0.4-0.9-0.7c-0.3-0.2-0.5-0.3-0.8-0.5
			c-0.3-0.2-0.4-0.3-0.6-0.6c-0.2-0.3-0.3-0.5-0.3-0.8s0.1-0.6,0.3-0.8c0.2-0.3,0.3-0.4,0.6-0.5C22.1,140.4,22.5,140.4,22.7,140.4z"
			/>
		<path class="st1" d="M27.8,140.4v5c0,0.3,0.1,0.5,0.2,0.7c0.2,0.1,0.3,0.2,0.7,0.2v0.3c-0.2,0-0.3,0-0.6,0c-0.3,0-0.5,0-0.8,0
			c-0.3,0-0.5,0-0.8,0c-0.3,0-0.5,0-0.6,0v-0.3c0.3,0,0.5-0.1,0.7-0.2c0.2-0.1,0.2-0.3,0.2-0.7v-3.6c0-0.3-0.1-0.6-0.2-0.8
			c-0.1-0.2-0.3-0.3-0.7-0.3v-0.3c0.3,0,0.5,0,0.8,0c0.3,0,0.4,0,0.7,0C27.4,140.5,27.6,140.5,27.8,140.4z M27.2,137.7
			c0.2,0,0.3,0.1,0.5,0.3c0.2,0.2,0.3,0.3,0.3,0.5s-0.1,0.3-0.3,0.5c-0.2,0.2-0.3,0.3-0.5,0.3s-0.3-0.1-0.5-0.3
			c-0.2-0.2-0.3-0.3-0.3-0.5s0.1-0.3,0.3-0.5C26.8,137.7,27,137.7,27.2,137.7z"/>
		<path class="st1" d="M33.1,140.4c0.3,0,0.5,0,0.8,0.1c0.2,0.1,0.3,0.2,0.5,0.3c0.2,0.2,0.3,0.3,0.3,0.6c0.1,0.3,0.1,0.5,0.1,0.9
			v3.1c0,0.3,0.1,0.5,0.2,0.7c0.2,0.1,0.3,0.2,0.7,0.2v0.3c-0.2,0-0.3,0-0.6,0c-0.3,0-0.5,0-0.8,0c-0.3,0-0.5,0-0.8,0
			c-0.3,0-0.4,0-0.6,0v-0.3c0.3,0,0.5-0.1,0.6-0.2c0.1-0.1,0.2-0.3,0.2-0.7v-3.4c0-0.3,0-0.4-0.1-0.7c0-0.2-0.1-0.3-0.3-0.5
			c-0.2-0.1-0.3-0.2-0.6-0.2c-0.3,0-0.6,0.1-0.8,0.3c-0.3,0.2-0.4,0.4-0.6,0.8c-0.2,0.3-0.2,0.7-0.2,1.1v2.5c0,0.3,0.1,0.5,0.2,0.7
			c0.1,0.1,0.3,0.2,0.6,0.2v0.3c-0.1,0-0.3,0-0.6,0c-0.3,0-0.5,0-0.8,0c-0.3,0-0.5,0-0.8,0c-0.3,0-0.5,0-0.6,0v-0.3
			c0.3,0,0.5-0.1,0.7-0.2c0.2-0.1,0.2-0.3,0.2-0.7v-3.6c0-0.3-0.1-0.6-0.2-0.8c-0.1-0.2-0.3-0.3-0.7-0.3v-0.3c0.3,0,0.5,0,0.8,0
			c0.3,0,0.4,0,0.7,0c0.2,0,0.4-0.1,0.6-0.1v1.4c0.2-0.5,0.5-0.9,0.8-1.1C32.4,140.5,32.8,140.4,33.1,140.4z"/>
		<path class="st1" d="M39,140.4c0.3,0,0.5,0,0.8,0.1c0.3,0.1,0.4,0.2,0.6,0.3c0.2,0.1,0.3,0.3,0.4,0.4s0.2,0.3,0.2,0.5
			s-0.1,0.3-0.2,0.5c-0.1,0.1-0.3,0.2-0.4,0.2c-0.2,0-0.3-0.1-0.4-0.2c-0.2-0.1-0.2-0.3-0.2-0.4c0-0.2,0.1-0.3,0.2-0.4
			c0.1-0.1,0.2-0.2,0.3-0.2c-0.1-0.2-0.3-0.3-0.4-0.3c-0.2-0.1-0.4-0.2-0.6-0.2c-0.2,0-0.4,0.1-0.6,0.2c-0.2,0.1-0.3,0.3-0.5,0.4
			c-0.2,0.3-0.3,0.5-0.4,0.8c-0.1,0.3-0.2,0.8-0.2,1.4c0,0.7,0.1,1.2,0.3,1.6c0.2,0.4,0.3,0.7,0.6,0.8c0.3,0.2,0.5,0.3,0.8,0.3
			c0.2,0,0.4,0,0.6-0.1c0.2-0.1,0.4-0.2,0.6-0.3c0.2-0.2,0.3-0.4,0.5-0.7l0.3,0.1c-0.1,0.3-0.2,0.5-0.4,0.8
			c-0.2,0.3-0.4,0.4-0.7,0.6s-0.7,0.3-1,0.3c-0.5,0-0.9-0.1-1.3-0.3c-0.4-0.3-0.7-0.6-0.9-1.1c-0.3-0.4-0.3-1-0.3-1.6
			c0-0.7,0.1-1.2,0.3-1.7c0.3-0.5,0.5-0.8,0.9-1.1C38.1,140.5,38.5,140.4,39,140.4z"/>
		<path class="st1" d="M44.6,140.4c0.7,0,1.2,0.2,1.6,0.6c0.4,0.4,0.6,1.1,0.6,1.9h-4.1v-0.3h3c0-0.3,0-0.8-0.1-1
			c-0.1-0.3-0.2-0.6-0.3-0.8c-0.2-0.2-0.4-0.3-0.7-0.3c-0.3,0-0.7,0.2-0.9,0.5c-0.3,0.3-0.4,0.9-0.5,1.7v0.1c0,0.1,0,0.3,0,0.4
			s0,0.3,0,0.4c0,0.5,0.1,1,0.3,1.4c0.2,0.3,0.4,0.7,0.7,0.8c0.3,0.2,0.6,0.3,0.8,0.3s0.4,0,0.7-0.1s0.4-0.2,0.6-0.3
			c0.2-0.2,0.3-0.4,0.4-0.7l0.3,0.1c-0.1,0.3-0.3,0.5-0.4,0.8c-0.2,0.3-0.4,0.4-0.8,0.6c-0.3,0.2-0.7,0.3-1,0.3
			c-0.6,0-1-0.2-1.4-0.4s-0.7-0.6-0.9-1.1c-0.3-0.4-0.3-1-0.3-1.5c0-0.7,0.1-1.3,0.3-1.8s0.5-0.8,0.9-1.1
			C43.7,140.5,44.1,140.4,44.6,140.4z"/>
		<path class="st1" d="M53.1,140.4c0.5,0,0.9,0.1,1.3,0.3c0.3,0.3,0.5,0.6,0.5,1.1c0,0.3-0.1,0.6-0.3,0.8c-0.2,0.3-0.3,0.5-0.6,0.8
			c-0.3,0.3-0.5,0.5-0.8,0.8c-0.3,0.3-0.5,0.5-0.8,0.7c-0.3,0.2-0.4,0.4-0.6,0.7h2.4c0.3,0,0.5-0.1,0.6-0.2c0.1-0.1,0.2-0.3,0.2-0.4
			h0.2c0,0.4,0,0.8,0,0.9s0,0.4,0,0.6c-0.1,0-0.2,0-0.4,0c-0.2,0-0.4,0-0.7,0c-0.3,0-0.5,0-0.7,0h-2.7v-0.2c0.3-0.3,0.5-0.5,0.8-0.8
			c0.3-0.3,0.7-0.6,0.9-0.9c0.3-0.3,0.6-0.8,0.8-1.1c0.2-0.3,0.3-0.8,0.3-1.4c0-0.4-0.1-0.8-0.3-0.9c-0.3-0.2-0.5-0.3-0.8-0.3
			s-0.6,0.1-0.8,0.3c-0.3,0.2-0.5,0.4-0.7,0.8l-0.2-0.1c0.1-0.3,0.3-0.5,0.5-0.7c0.2-0.3,0.4-0.4,0.8-0.5
			C52.3,140.5,52.6,140.4,53.1,140.4z"/>
		<path class="st1" d="M59.3,140.4c0.5,0,1,0.1,1.4,0.3c0.4,0.3,0.8,0.6,1,1.1c0.3,0.5,0.3,1,0.3,1.6c0,0.6-0.1,1.2-0.3,1.7
			c-0.3,0.5-0.6,0.8-1,1.2c-0.4,0.3-0.9,0.4-1.5,0.4c-0.5,0-1-0.1-1.4-0.3c-0.4-0.3-0.8-0.6-1-1.1c-0.3-0.4-0.3-1-0.3-1.6
			c0-0.6,0.1-1.2,0.3-1.6c0.3-0.5,0.6-0.8,1-1.2C58.2,140.5,58.7,140.4,59.3,140.4z M59.2,140.6c-0.5,0-0.9,0.3-1.2,0.8
			c-0.3,0.5-0.5,1.3-0.5,2.2c0,0.7,0.1,1.3,0.3,1.7c0.2,0.4,0.4,0.8,0.7,0.9c0.3,0.2,0.6,0.3,0.9,0.3c0.5,0,0.9-0.3,1.3-0.8
			s0.5-1.3,0.5-2.2c0-0.7-0.1-1.3-0.3-1.7c-0.2-0.4-0.3-0.8-0.7-0.9C59.8,140.7,59.6,140.6,59.2,140.6z"/>
		<path class="st1" d="M65.6,140.4c0.5,0,0.9,0.1,1.3,0.3c0.3,0.3,0.5,0.6,0.5,1.1c0,0.3-0.1,0.6-0.3,0.8c-0.2,0.3-0.3,0.5-0.6,0.8
			c-0.3,0.3-0.5,0.5-0.8,0.8c-0.3,0.3-0.5,0.5-0.8,0.7c-0.3,0.2-0.4,0.4-0.6,0.7h2.4c0.3,0,0.5-0.1,0.6-0.2s0.2-0.3,0.2-0.4h0.2
			c0,0.4,0,0.8,0,0.9s0,0.4,0,0.6c-0.1,0-0.2,0-0.4,0c-0.3,0-0.4,0-0.7,0s-0.5,0-0.7,0h-2.5v-0.2c0.3-0.3,0.5-0.5,0.8-0.8
			c0.3-0.3,0.7-0.6,0.9-0.9c0.3-0.3,0.6-0.8,0.8-1.1c0.2-0.3,0.3-0.8,0.3-1.4c0-0.4-0.1-0.8-0.3-0.9c-0.3-0.2-0.5-0.3-0.8-0.3
			c-0.3,0-0.6,0.1-0.8,0.3c-0.3,0.2-0.5,0.4-0.7,0.8l-0.2-0.1c0.1-0.3,0.3-0.5,0.5-0.7c0.2-0.3,0.4-0.4,0.8-0.5
			C64.8,140.5,65.2,140.4,65.6,140.4z"/>
		<path class="st1" d="M71.2,140.4c0.5,0,0.9,0.1,1.3,0.3c0.3,0.3,0.5,0.6,0.5,1.1c0,0.3-0.1,0.6-0.3,0.8c-0.2,0.3-0.3,0.5-0.6,0.8
			c-0.3,0.3-0.5,0.5-0.8,0.8c-0.3,0.3-0.5,0.5-0.8,0.7c-0.3,0.2-0.4,0.4-0.6,0.7h2.4c0.3,0,0.5-0.1,0.6-0.2s0.2-0.3,0.2-0.4h0.2
			c0,0.4,0,0.8,0,0.9s0,0.4,0,0.6c-0.1,0-0.2,0-0.4,0c-0.3,0-0.4,0-0.7,0s-0.5,0-0.7,0h-2.7v-0.2c0.3-0.3,0.5-0.5,0.8-0.8
			c0.3-0.3,0.7-0.6,0.9-0.9c0.3-0.3,0.6-0.8,0.8-1.1s0.3-0.8,0.3-1.4c0-0.4-0.1-0.8-0.3-0.9c-0.3-0.2-0.5-0.3-0.8-0.3
			c-0.3,0-0.6,0.1-0.8,0.3c-0.3,0.2-0.5,0.4-0.7,0.8l-0.2-0.1c0.1-0.3,0.3-0.5,0.5-0.7c0.2-0.3,0.4-0.4,0.8-0.5
			C70.4,140.5,70.7,140.4,71.2,140.4z"/>
	</g>
	<g>
		<rect x="6.4" y="142.7" class="st1" width="12.3" height="0.5"/>
	</g>
	<g>
		<rect x="76.4" y="142.7" class="st1" width="12.3" height="0.5"/>
	</g>
</g>
</svg>
