<?xml version="1.0" encoding="utf-8"?>
<!-- Generator: Adobe Illustrator 24.2.0, SVG Export Plug-In . SVG Version: 6.00 Build 0)  -->
<svg version="1.1" id="圖層_1" xmlns="http://www.w3.org/2000/svg" xmlns:xlink="http://www.w3.org/1999/xlink" x="0px" y="0px"
	 viewBox="0 0 20 20" style="enable-background:new 0 0 20 20;" xml:space="preserve">
<style type="text/css">
	.st0{fill:#891D16;}
</style>
<path class="st0" d="M10,1.8c2.7,0,3,0,4,0.1c1,0,1.5,0.2,1.9,0.3c0.5,0.2,0.8,0.4,1.1,0.8s0.6,0.7,0.8,1.2C17.9,4.4,18.1,5,18.1,6
	c0,1.1,0.1,1.4,0.1,4s0,3-0.1,4c0,1-0.2,1.5-0.3,1.9c-0.2,0.5-0.4,0.8-0.8,1.1s-0.7,0.6-1.1,0.8c-0.4,0.1-0.9,0.3-1.9,0.3
	c-1.1,0-1.4,0.1-4,0.1s-3,0-4-0.1c-1,0-1.5-0.2-1.9-0.3c-0.5-0.2-0.8-0.4-1.2-0.8s-0.6-0.7-0.8-1.1C2.1,15.5,1.9,15,1.9,14
	c0-1.1-0.1-1.4-0.1-4s0-3,0.1-4c0-1,0.2-1.5,0.3-1.9c0.2-0.5,0.4-0.8,0.8-1.2s0.7-0.6,1.2-0.8C4.4,2.1,5,1.9,6,1.9
	C7,1.8,7.3,1.8,10,1.8 M10,0C7.3,0,6.9,0,5.9,0.1S4.1,0.3,3.5,0.5C2.8,0.8,2.2,1.1,1.7,1.7C1.1,2.2,0.8,2.8,0.5,3.4
	C0.3,4.1,0.1,4.8,0.1,5.9C0,6.9,0,7.3,0,10s0,3.1,0.1,4.1s0.2,1.8,0.5,2.4c0.3,0.7,0.6,1.2,1.1,1.8c0.6,0.6,1.1,0.9,1.8,1.1
	c0.6,0.2,1.4,0.4,2.4,0.5C7,20,7.3,20,10,20s3.1,0,4.1-0.1s1.8-0.2,2.4-0.5c0.7-0.3,1.2-0.6,1.8-1.1c0.6-0.6,0.9-1.1,1.1-1.8
	c0.2-0.6,0.4-1.4,0.5-2.4C20,13,20,12.7,20,10s0-3.1-0.1-4.1s-0.2-1.8-0.5-2.4c-0.3-0.7-0.6-1.2-1.1-1.8c-0.6-0.6-1.1-0.9-1.8-1.1
	c-0.6-0.2-1.4-0.4-2.4-0.5C13,0,12.7,0,10,0z"/>
<path class="st0" d="M10,4.9c-2.8,0-5.1,2.3-5.1,5.1s2.3,5.1,5.1,5.1s5.1-2.3,5.1-5.1S12.8,4.9,10,4.9z M10,13.3
	c-1.8,0-3.3-1.5-3.3-3.3S8.2,6.7,10,6.7s3.3,1.5,3.3,3.3S11.8,13.3,10,13.3z"/>
<circle class="st0" cx="15.3" cy="4.7" r="1.2"/>
</svg>
