<?xml version="1.0" encoding="utf-8"?>
<!-- Generator: Adobe Illustrator 24.2.0, SVG Export Plug-In . SVG Version: 6.00 Build 0)  -->
<svg version="1.1" id="圖層_1" xmlns="http://www.w3.org/2000/svg" xmlns:xlink="http://www.w3.org/1999/xlink" x="0px" y="0px"
	 viewBox="0 0 50 50" style="enable-background:new 0 0 50 50;" xml:space="preserve">
<style type="text/css">
	.st0{fill:#FFFFFF;}
</style>
<g>
	<g transform="scale(5.12,5.12)">
		<path class="st0" d="M8.5,0.1H1.3c-0.6,0-1.1,0.5-1.1,1.1v7.2c0,0.6,0.5,1.1,1.1,1.1h7.2c0.6,0,1.1-0.5,1.1-1.1V1.3
			C9.6,0.6,9.1,0.1,8.5,0.1z M7.6,3.5H7.1C6.7,3.5,6.5,3.6,6.5,4v0.7h1.1L7.4,5.8H6.5v3.4H5.3V5.8H4.4V4.7h0.9V4
			c0-0.9,0.5-1.6,1.4-1.6c0.7,0,0.9,0.2,0.9,0.2V3.5z"/>
	</g>
</g>
</svg>
