<?xml version="1.0" encoding="utf-8"?>
<!-- Generator: Adobe Illustrator 24.2.0, SVG Export Plug-In . SVG Version: 6.00 Build 0)  -->
<svg version="1.1" id="圖層_1" xmlns="http://www.w3.org/2000/svg" xmlns:xlink="http://www.w3.org/1999/xlink" x="0px" y="0px"
	 viewBox="0 0 150 150" style="enable-background:new 0 0 150 150;" xml:space="preserve">
<style type="text/css">
	.st0{fill:#FFFFFF;}
</style>
<g>
	<g transform="scale(3.55556,3.55556)">
		<path class="st0" d="M15.1,0.8c-13.3,0-14.3,1-14.3,14.3v12c0,13.3,1,14.3,14.3,14.3h12c13.3,0,14.3-1,14.3-14.3v-12
			c0-13.3-1-14.3-14.3-14.3H15.1z M21.1,7.6c8.7,0,15.8,5.7,15.8,12.8c0,2.8-1.1,5.4-3.4,7.9c-3.3,3.8-10.7,8.5-12.4,9.2
			c-1.7,0.7-1.4-0.5-1.4-0.9c0-0.2,0.2-1.3,0.2-1.3c0.1-0.4,0.1-1-0.1-1.4c-0.2-0.4-0.9-0.7-1.4-0.8c-7.6-1-13.2-6.3-13.2-12.6
			C5.3,13.3,12.4,7.6,21.1,7.6z M20.3,17.2c-0.1,0-0.2,0-0.3,0c-0.3,0.1-0.5,0.4-0.5,0.8v6.1c0,0.4,0.4,0.8,0.8,0.8
			c0.4,0,0.8-0.4,0.8-0.8v-3.8l3.1,4.3c0.1,0.2,0.4,0.3,0.6,0.3c0.1,0,0.2,0,0.3,0c0.3-0.1,0.5-0.4,0.5-0.8h0V18
			c0-0.4-0.4-0.8-0.8-0.8c-0.4,0-0.8,0.4-0.8,0.8v3.8l-3.1-4.3C20.8,17.4,20.5,17.2,20.3,17.2L20.3,17.2z M16.7,17.2
			c-0.5,0-0.8,0.4-0.8,0.8v6.1c0,0.4,0.4,0.8,0.8,0.8c0.5,0,0.8-0.4,0.8-0.8V18C17.6,17.6,17.2,17.2,16.7,17.2z M28.3,17.2
			c-0.5,0-0.8,0.4-0.8,0.8v0v3v0v0v3c0,0.4,0.4,0.8,0.8,0.8h3.2c0.5,0,0.8-0.4,0.8-0.8c0-0.4-0.4-0.8-0.8-0.8h-2.3v-1.4h2.3
			c0.5,0,0.8-0.4,0.8-0.8c0-0.4-0.4-0.8-0.8-0.8l-2.3,0v-1.4h2.3c0.5,0,0.8-0.4,0.8-0.8c0-0.4-0.4-0.8-0.8-0.8L28.3,17.2z
			 M10.7,17.2c-0.5,0-0.8,0.4-0.8,0.8v6.1c0,0.4,0.4,0.8,0.8,0.8h3.2c0.5,0,0.8-0.4,0.8-0.8c0-0.4-0.4-0.8-0.8-0.8h-2.3V18
			C11.5,17.6,11.1,17.2,10.7,17.2L10.7,17.2z"/>
	</g>
</g>
</svg>
