<?xml version="1.0" encoding="utf-8"?>
<!-- Generator: Adobe Illustrator 24.2.0, SVG Export Plug-In . SVG Version: 6.00 Build 0)  -->
<svg version="1.1" id="圖層_1" xmlns="http://www.w3.org/2000/svg" xmlns:xlink="http://www.w3.org/1999/xlink" x="0px" y="0px"
	 viewBox="0 0 18 26.4" style="enable-background:new 0 0 18 26.4;" xml:space="preserve">
<style type="text/css">
	.st0{fill:#891D16;}
</style>
<path class="st0" d="M18,9.3c0-1.5-0.3-2.9-0.9-4.1c-1-2.2-2.9-4-5.2-4.7C10.9,0.2,10,0,9,0C6.2,0,3.8,1.3,2.1,3.3
	C0.8,5,0,7.1,0,9.3c0,1.5,0.3,2.9,0.9,4.1c0.2,0.3,0.3,0.6,0.5,0.9s1.8,2.7,3.6,5.1c0.3,0.4,0.6,0.7,0.8,1.1
	c1.8,2.3,2.3,4.2,2.4,5.2c0.1,0.4,0.3,0.6,0.7,0.6s0.6-0.3,0.7-0.6c0.1-0.9,0.7-2.9,2.4-5.2c2-2.6,4.5-6.2,4.5-6.2
	C17.5,12.9,18,11.2,18,9.3L18,9.3z M9,12.9c-1.9,0-3.5-1.6-3.5-3.5c0-0.9,0.3-1.6,0.8-2.2C6.9,6.3,7.9,5.8,9,5.8
	c1.9,0,3.5,1.6,3.5,3.5c0,0.9-0.3,1.6-0.8,2.2C11.1,12.3,10.1,12.9,9,12.9z"/>
</svg>
