<?xml version="1.0" encoding="utf-8"?>
<!-- Generator: Adobe Illustrator 24.2.0, SVG Export Plug-In . SVG Version: 6.00 Build 0)  -->
<svg version="1.1" id="圖層_1" xmlns="http://www.w3.org/2000/svg" xmlns:xlink="http://www.w3.org/1999/xlink" x="0px" y="0px"
	 viewBox="0 0 20 20" style="enable-background:new 0 0 20 20;" xml:space="preserve">
<style type="text/css">
	.st0{fill:#891D16;}
</style>
<path class="st0" d="M20,10c0,5.5-4.5,10-10,10S0,15.5,0,10S4.5,0,10,0S20,4.5,20,10z M18.2,10c0-4.5-3.7-8.2-8.2-8.2
	S1.8,5.5,1.8,10s3.7,8.2,8.2,8.2S18.2,14.5,18.2,10z"/>
<path class="st0" d="M7.4,9.9c0.3,0.5,0.6,1,1.1,1.5c0.4,0.5,1,0.9,1.7,1.3c0.1,0,0.1,0,0.1,0c0.1,0,0.1-0.1,0.2-0.1
	c0.1-0.1,0.1-0.1,0.2-0.2c0.3-0.4,0.6-0.8,1.1-0.6c0,0,0,0,0,0l1.6,0.9c0,0,0,0,0,0c0.2,0.1,0.3,0.4,0.3,0.6c0,0.3-0.1,0.6-0.2,0.8
	c-0.2,0.3-0.4,0.5-0.8,0.7c-0.3,0.1-0.6,0.2-0.9,0.3c-0.5,0.1-1,0-1.4-0.1c-0.5-0.1-0.9-0.4-1.4-0.7l0,0c-0.2-0.1-0.5-0.3-0.7-0.5
	C7.2,13,6.3,12,5.7,10.9C5.2,9.9,4.9,8.9,5.1,8c0.1-0.5,0.3-1,0.7-1.3c0.3-0.3,0.8-0.4,1.4-0.4c0.1,0,0.1,0,0.2,0.1l1,1.7
	c0.1,0.2,0.2,0.4,0.1,0.6C8.4,8.9,8.2,9,8,9.2C8,9.2,7.9,9.3,7.8,9.3C7.6,9.5,7.4,9.7,7.4,9.9L7.4,9.9z M9.3,9.1
	C9.2,9,9.1,8.9,9.1,8.7s0.2-0.2,0.4-0.2c0.5,0.1,0.9,0.4,1.3,0.7c0.4,0.3,0.6,0.8,0.8,1.2c0.1,0.2,0,0.3-0.2,0.4
	c-0.2,0.1-0.3,0-0.4-0.2c-0.1-0.4-0.3-0.7-0.6-1C10.1,9.4,9.7,9.2,9.3,9.1z M9.4,7.2c-0.2,0-0.3-0.2-0.2-0.3s0.2-0.3,0.3-0.2
	c0.9,0.2,1.8,0.6,2.4,1.3c0.7,0.6,1.2,1.5,1.4,2.4c0,0.2-0.1,0.3-0.2,0.4s-0.3-0.1-0.4-0.2c-0.2-0.8-0.7-1.5-1.3-2.1
	S10.2,7.4,9.4,7.2L9.4,7.2z M9.6,5.6c-0.2,0-0.3-0.2-0.3-0.3S9.5,5,9.6,5c1.3,0.2,2.4,0.7,3.4,1.6s1.6,2,1.9,3.2
	c0,0.2-0.1,0.3-0.2,0.4c-0.2,0-0.3-0.1-0.4-0.2c-0.2-1.1-0.9-2.1-1.7-2.9C11.8,6.2,10.7,5.7,9.6,5.6L9.6,5.6z"/>
</svg>
