<svg viewBox="0 0 60.83 83.76" xmlns="http://www.w3.org/2000/svg"><path d="m8.24 42.06c.46 0 1.18-.22 2.73-.76.43-.15.98-.34 1.14-.37 2.42-.55 3.09-.86 6.08-1.27.02.96.02 2.47-.06 4.43 0 .38-.08 1.58-.16 2.73-.09 1.31-.17 2.56-.17 3.05 0 2.17 2.44 6.94 5.05 6.94s2.52-3.67 2.52-5.64c0-1.72-.12-4.09-.4-7.72-.01-.12-.05-.78-.06-4.54 2.73-.21 7.19-.39 9.83-.52.22 13.47-2.02 21.87-9.75 30.7-.35.41-.33 1.02.05 1.4l.46.46c.2.2.46.3.72.3.17 0 .35-.04.5-.13 6.76-3.81 11.3-10.72 13.13-15.47 2.18-5.55 2.45-11.03 2.47-17.5h.06c3.06 0 6.29.22 8.18.4.37.02 1.6.26 2.7.46 2.09.39 3.5.65 4.14.65 1.7 0 3.43-1.13 3.43-3.3 0-.91-.3-2.05-1.43-3.1-.01 0-.02 0-.03 0-.2 0-.37-.16-.39-.36-.34-.26-.73-.52-1.19-.76-.07.18-.24.31-.44.31-.26 0-.47-.21-.47-.47 0-.08.03-.16.07-.23-.12-.05-.24-.1-.37-.15-.97-.37-2-.66-3.04-.85.01.05.03.1.03.16 0 .47-.38.85-.85.85s-.85-.38-.85-.85c0-.13.03-.25.09-.36-.47-.04-.95-.05-1.42-.03-.04.13-.15.22-.29.22-.13 0-.24-.08-.28-.19-.07 0-.14 0-.2.01-.57.05-1.13.15-1.68.27.24.13.42.38.42.67 0 .42-.34.77-.77.77s-.77-.34-.77-.77c0-.17.07-.32.16-.45-.54.14-1.07.29-1.6.45-.19.06-3.18.67-3.18.66v-.88c0-.22 0-.43 0-.64-.07.06-.15.1-.25.1-.22 0-.39-.18-.39-.39s.18-.39.39-.39c.1 0 .18.04.25.1 0-1.2.02-2.21.06-3.08-.16.19-.39.32-.66.32-.47 0-.86-.38-.86-.86s.38-.86.86-.86c.31 0 .57.17.72.42.08-.99.21-1.83.42-2.67.05-.13.16-.35.29-.62s.21-.51.27-.73c-.16-.09-.28-.26-.28-.46 0-.25.17-.45.4-.51-.02-.35-.09-.61-.09-.84 0-1.12-1.26-2.2-2.81-3.05-.46.96-1.42 1.62-2.55 1.62-1.57 0-2.84-1.27-2.84-2.84 0-.21.02-.41.07-.6-1.53 0-2.44.91-2.74 1.21-.39.39-.4 1.01-.03 1.41.87.95 1.48 1.79 1.87 2.55.13-.06.28-.09.43-.09.61 0 1.11.5 1.11 1.11 0 .58-.44 1.05-1.01 1.1.1 1.5.19 4.45.25 7.02.02 0 .04-.01.07-.01.19 0 .35.16.35.35s-.16.35-.35.35c-.02 0-.04 0-.05-.01.02.91.04 1.76.04 2.42-.37.02-.83.04-1.31.07.05.05.08.12.08.19 0 .16-.13.29-.29.29s-.29-.13-.29-.29c0-.06.02-.12.06-.17-.58.03-1.2.06-1.84.09-.67.03-1.6.07-2.58.1-.04.32-.3.56-.63.56s-.56-.23-.62-.52c-1.26.04-2.43.08-3.03.11 0-.9.05-1.72.3-2.57.03-.09.2-.44.33-.69.41-.84.67-1.4.8-1.82-.07.01-.13.02-.2.02-.62 0-1.13-.51-1.13-1.13 0-.48.31-.9.74-1.06-1.55-2.05-5.32-4.21-7.09-4.21-.32 0-.62.03-.91.07.15.13.25.33.25.54 0 .41-.33.74-.74.74s-.74-.33-.74-.74c0-.09.02-.17.05-.24-.55.22-1.01.54-1.32.94-.3.39-.29.93.03 1.3 1.77 2.05 2.31 2.67 2.75 9.32-.94.07-2 .16-3.05.24.06.1.11.22.11.34 0 .37-.3.67-.67.67s-.67-.3-.67-.67c0-.09.02-.18.05-.26-1.39.1-2.62.18-3.26.18-1.62 0-4.13-.21-6.6-.67-.1.31-.38.55-.73.55-.43 0-.77-.35-.77-.77 0-.03.01-.06.02-.09-.3-.07-.6-.14-.88-.21-.52-.14-1.06.15-1.23.67-.16.47-.25.83-.25 1.3 0 3.7 6.77 7.2 8.24 7.2zm50.34-8.02c.22 0 .4.18.4.4s-.18.4-.4.4-.4-.18-.4-.4.18-.4.4-.4zm-1.88 1.02c.06 0 .11.05.11.11s-.05.11-.11.11-.11-.05-.11-.11.05-.11.11-.11zm-1.04-1.66c.16 0 .28.13.28.28s-.13.28-.28.28-.28-.13-.28-.28.13-.28.28-.28zm-.66-1.64c.18 0 .33.15.33.33s-.15.33-.33.33-.33-.15-.33-.33.15-.33.33-.33zm-.98 2.84c.13 0 .23.1.23.23s-.1.23-.23.23-.23-.1-.23-.23.1-.23.23-.23zm-1.01-1.2c.09 0 .16.07.16.16s-.07.16-.16.16-.16-.07-.16-.16.07-.16.16-.16zm-2.31 1.08c.07 0 .12.05.12.12s-.05.12-.12.12-.12-.05-.12-.12.05-.12.12-.12zm-.59-1.61s.07.03.07.07-.03.07-.07.07-.07-.03-.07-.07.03-.07.07-.07zm-.6 2.76c-.05 0-.09-.04-.09-.09s.04-.09.09-.09.09.04.09.09-.04.09-.09.09zm-.07-4.13c.09 0 .17.07.17.17s-.07.17-.17.17-.17-.07-.17-.17.07-.17.17-.17zm-1.48 2.47s.07.03.07.07-.03.07-.07.07-.07-.03-.07-.07.03-.07.07-.07zm-2.16-.57c.09 0 .16.07.16.16s-.07.16-.16.16-.16-.07-.16-.16.07-.16.16-.16zm-1.05-1.3c.18 0 .33.15.33.33s-.15.33-.33.33-.33-.15-.33-.33.15-.33.33-.33zm-.69 2.84c.09 0 .17.07.17.17s-.07.17-.17.17-.17-.07-.17-.17.07-.17.17-.17zm-2.49-.46c.07 0 .12.05.12.12s-.05.12-.12.12-.12-.05-.12-.12.05-.12.12-.12zm-3.11 1.17c-.2 0-.35-.16-.35-.35s.16-.35.35-.35.35.16.35.35-.16.35-.35.35zm2.09-2.97c-.11 0-.21-.09-.21-.21s.09-.21.21-.21.21.09.21.21-.09.21-.21.21zm-.21-4.43c0-.09.08-.17.17-.17s.17.08.17.17-.08.17-.17.17-.17-.08-.17-.17zm-.52-7.63c1.06 0 1.92.86 1.92 1.92s-.86 1.92-1.92 1.92-1.92-.86-1.92-1.92.86-1.92 1.92-1.92zm-1.92 7.46c.47 0 .84.38.84.84s-.38.84-.84.84-.84-.38-.84-.84.38-.84.84-.84zm-.37 4.4c.36 0 .64.29.64.64s-.29.64-.64.64-.64-.29-.64-.64.29-.64.64-.64zm-1.85 3.52c.12 0 .21.09.21.21s-.09.21-.21.21-.21-.09-.21-.21.09-.21.21-.21zm-.61-2.6c.16 0 .28.13.28.28s-.13.28-.28.28-.28-.13-.28-.28.13-.28.28-.28zm-1.97 1.45c.12 0 .21.1.21.21s-.1.21-.21.21-.21-.1-.21-.21.1-.21.21-.21zm-2.36-1.73c.12 0 .22.1.22.22s-.1.22-.22.22-.22-.1-.22-.22.1-.22.22-.22zm-.22 2.41c.06 0 .1.05.1.1s-.05.1-.1.1-.1-.05-.1-.1.05-.1.1-.1zm-2.34 1.28s.09.04.09.09-.04.09-.09.09-.09-.04-.09-.09.04-.09.09-.09zm-.45-1.96c.05 0 .09.04.09.09s-.04.09-.09.09-.09-.04-.09-.09.04-.09.09-.09zm-1.22-1.51c.1 0 .17.08.17.17s-.08.17-.17.17-.17-.08-.17-.17.08-.17.17-.17zm-.7 2.3c.05 0 .1.04.1.1s-.04.1-.1.1-.1-.04-.1-.1.04-.1.1-.1zm-7.64 1.34s-.09-.04-.09-.09.04-.09.09-.09.09.04.09.09-.04.09-.09.09zm.25-.98c-.09 0-.16-.07-.16-.16s.07-.16.16-.16.16.07.16.16-.07.16-.16.16zm2.33-.16c-.11 0-.19-.09-.19-.19s.09-.19.19-.19.19.09.19.19-.09.19-.19.19zm.91-2.15c-.13 0-.23-.1-.23-.23s.1-.23.23-.23.23.1.23.23-.1.23-.23.23zm2.41-.57c.06 0 .11.05.11.11s-.05.11-.11.11-.11-.05-.11-.11.05-.11.11-.11zm-.02 2.16c.05 0 .1.04.1.1s-.04.1-.1.1-.1-.04-.1-.1.04-.1.1-.1zm.05 1.41c.08 0 .14.06.14.14s-.06.14-.14.14-.14-.06-.14-.14.06-.14.14-.14zm-.67-11.11c.13 0 .24.11.24.24s-.11.24-.24.24-.24-.11-.24-.24.11-.24.24-.24zm-.06 3.28c0 .5-.41.91-.91.91s-.91-.41-.91-.91.41-.91.91-.91.91.41.91.91zm-1.94-5.61c.78 0 1.41.63 1.41 1.41s-.63 1.41-1.41 1.41-1.41-.63-1.41-1.41.63-1.41 1.41-1.41zm-2.14 4.37c.18 0 .33.15.33.33s-.15.33-.33.33-.33-.15-.33-.33.15-.33.33-.33zm.16 5.3c.33 0 .6.27.6.6s-.27.6-.6.6-.6-.27-.6-.6.27-.6.6-.6zm-.87-2.61c0 .14-.11.25-.25.25s-.25-.11-.25-.25.11-.25.25-.25.25.11.25.25zm-.78-3.8c-.3 0-.54-.24-.54-.54s.24-.54.54-.54.54.24.54.54-.24.54-.54.54zm-1.37 8.77c.16 0 .3.13.3.3s-.13.3-.3.3-.3-.13-.3-.3.13-.3.3-.3zm-.63 1.02c.07 0 .12.05.12.12s-.05.12-.12.12-.12-.05-.12-.12.05-.12.12-.12zm-2.61.68c.08 0 .15.07.15.15s-.07.15-.15.15-.15-.07-.15-.15.07-.15.15-.15zm-1.88-1.68s.09.04.09.09-.04.09-.09.09-.09-.04-.09-.09.04-.09.09-.09zm-1.2.91c.06 0 .1.05.1.1s-.05.1-.1.1-.1-.05-.1-.1.05-.1.1-.1zm-2.29-.93c.22 0 .4.18.4.4s-.18.4-.4.4-.4-.18-.4-.4.18-.4.4-.4zm-2.65-1.17c.14 0 .24.11.24.24s-.11.24-.24.24-.24-.11-.24-.24.11-.24.24-.24zm-.5 2.43c.08 0 .14.06.14.14s-.06.14-.14.14-.14-.06-.14-.14.06-.14.14-.14zm-1.87-1.6c.09 0 .17.07.17.17s-.07.17-.17.17-.17-.07-.17-.17.07-.17.17-.17zm-.59 1.75c.08 0 .14.06.14.14s-.06.14-.14.14-.14-.06-.14-.14.06-.14.14-.14zm-1.14-.95s-.08-.04-.08-.08.04-.08.08-.08.08.04.08.08-.04.08-.08.08zm-.08-1.44c-.2 0-.37-.17-.37-.37s.17-.37.37-.37.37.17.37.37-.17.37-.37.37zm6.43-10.91c0-.22.18-.4.4-.4s.4.18.4.4-.18.4-.4.4-.4-.18-.4-.4zm5.62 1.46c0-.08.07-.15.15-.15s.15.07.15.15-.07.15-.15.15-.15-.07-.15-.15zm2.63-.71c0-.07.05-.12.12-.12s.12.05.12.12-.05.12-.12.12-.12-.05-.12-.12zm2.91-.58c0 .09-.07.16-.16.16s-.16-.07-.16-.16.07-.16.16-.16.16.07.16.16zm5.37 1c0-.08.06-.14.14-.14s.14.06.14.14-.06.14-.14.14-.14-.06-.14-.14zm1.76-1.1c0-.05.04-.1.1-.1s.1.04.1.1-.04.1-.1.1-.1-.04-.1-.1zm1.93-.8c0-.05.04-.09.09-.09s.09.04.09.09-.04.09-.09.09-.09-.04-.09-.09zm2.77.7c0-.06.05-.1.1-.1s.1.05.1.1-.05.1-.1.1-.1-.05-.1-.1zm2.48-.58c0-.12.1-.21.21-.21s.21.1.21.21-.1.21-.21.21-.21-.1-.21-.21zm2.58 1.15c0-.12.09-.21.21-.21s.21.09.21.21-.09.21-.21.21-.21-.09-.21-.21zm3.34-.91c0 .2-.16.35-.35.35s-.35-.16-.35-.35.16-.35.35-.35.35.16.35.35zm2.64-.7c0-.07.05-.12.12-.12s.12.05.12.12-.05.12-.12.12-.12-.05-.12-.12zm2.21 4.19c0-.09.07-.17.17-.17s.17.07.17.17-.07.17-.17.17-.17-.07-.17-.17zm1.99-5.23c0-.09.07-.16.16-.16s.16.07.16.16-.07.16-.16.16-.16-.07-.16-.16zm2.24.48s.03-.07.07-.07.07.03.07.07-.03.07-.07.07-.07-.03-.07-.07zm1.17 3.09c0 .05-.04.09-.09.09s-.09-.04-.09-.09.04-.09.09-.09.09.04.09.09zm.98-4.19s.03-.07.07-.07.07.03.07.07-.03.07-.07.07-.07-.03-.07-.07zm2.81.62c0-.09.07-.16.16-.16s.16.07.16.16-.07.16-.16.16-.16-.07-.16-.16zm-1.99 1.97c0-.16.13-.28.28-.28s.28.13.28.28-.13.28-.28.28-.28-.13-.28-.28zm7.32 2.57c0-.22.18-.4.4-.4s.4.18.4.4-.18.4-.4.4-.4-.18-.4-.4zm-4.62-7.19c0 .47-.38.85-.85.85s-.85-.38-.85-.85c0-.13.03-.25.09-.36.14-.29.42-.49.76-.49.41 0 .74.3.82.69.01.05.03.1.03.16zm-5.33 4.91c0 .42-.34.77-.77.77s-.77-.34-.77-.77c0-.17.07-.32.16-.45.14-.19.35-.32.6-.32.13 0 .24.04.35.09.24.13.42.38.42.67zm-4.01-.65c0-.18.15-.33.33-.33s.33.15.33.33-.15.33-.33.33-.33-.15-.33-.33zm-3.46-2.69c0 .11-.09.21-.21.21s-.21-.09-.21-.21.09-.21.21-.21.21.09.21.21zm-3.87.64c0-.36.29-.64.64-.64s.64.29.64.64-.29.64-.64.64-.64-.29-.64-.64zm-2.1.57c0-.16.13-.28.28-.28s.28.13.28.28-.13.28-.28.28-.28-.13-.28-.28zm-.75-.72c0 .16-.13.29-.29.29s-.29-.13-.29-.29c0-.06.02-.12.06-.17.05-.07.13-.12.23-.12.09 0 .16.04.22.1.05.05.08.12.08.19zm-3.52.37c0-.12.1-.22.22-.22s.22.1.22.22-.1.22-.22.22-.22-.1-.22-.22zm-1.4-.42s-.01.05-.02.08c-.04.32-.3.56-.63.56s-.56-.23-.62-.52c0-.04-.02-.08-.02-.12 0-.36.29-.65.65-.65s.65.29.65.65zm-2.78.59c0-.1.08-.17.17-.17s.17.08.17.17-.08.17-.17.17-.17-.08-.17-.17zm-2.39-.28c0-.06.05-.11.11-.11s.11.05.11.11-.05.11-.11.11-.11-.05-.11-.11zm-2.06.23c0 .13-.1.23-.23.23s-.23-.1-.23-.23.1-.23.23-.23.23.1.23.23zm-3.04.06c0-.33.27-.6.6-.6s.6.27.6.6-.27.6-.6.6-.6-.27-.6-.6zm-10.86-5.63c0-.33.27-.6.6-.6s.6.27.6.6-.27.6-.6.6-.6-.27-.6-.6zm7.81 5.76c-.07 0-.12-.05-.12-.12s.05-.12.12-.12.12.05.12.12-.05.12-.12.12zm-.8.53c0 .37-.3.67-.67.67s-.67-.3-.67-.67c0-.09.02-.18.05-.26.1-.24.34-.41.62-.41.24 0 .44.13.56.32.06.1.11.22.11.34zm-3.61-.47c0-.08.07-.15.15-.15s.15.07.15.15-.07.15-.15.15-.15-.07-.15-.15zm-3.06.01c0-.14.11-.26.26-.26s.26.11.26.26-.11.26-.26.26-.26-.11-.26-.26zm-3.4.64c0-.14.11-.24.24-.24s.24.11.24.24-.11.24-.24.24-.24-.11-.24-.24zm1.67 4.14c0-.09.07-.17.17-.17s.17.07.17.17-.07.17-.17.17-.17-.07-.17-.17zm-2.07-1.82c0-.08.06-.14.14-.14s.14.06.14.14-.06.14-.14.14-.14-.06-.14-.14zm5.47-.37c0-.06.05-.1.1-.1s.1.05.1.1-.05.1-.1.1-.1-.05-.1-.1zm-.85 5.85c0-.06.05-.1.1-.1s.1.05.1.1-.05.1-.1.1-.1-.05-.1-.1zm6.87 2.39c0-.06.05-.1.1-.1s.1.05.1.1-.05.1-.1.1-.1-.05-.1-.1zm-4.8-9.17s.04-.09.09-.09.09.04.09.09-.04.09-.09.09-.09-.04-.09-.09zm-6.96 8.23s.04-.09.09-.09.09.04.09.09-.04.09-.09.09-.09-.04-.09-.09zm11.87-8.04c0-.16.13-.3.3-.3s.3.13.3.3-.13.3-.3.3-.3-.13-.3-.3zm2.13 1.33s-.04.09-.09.09-.09-.04-.09-.09.04-.09.09-.09.09.04.09.09zm5.69-1.53c0-.05.04-.1.1-.1s.1.04.1.1-.04.1-.1.1-.1-.04-.1-.1zm4.14 1.53s.04-.09.09-.09.09.04.09.09-.04.09-.09.09-.09-.04-.09-.09zm-2.27 6.8s.04-.09.09-.09.09.04.09.09-.04.09-.09.09-.09-.04-.09-.09zm-24.38-4.12s-.04.08-.08.08-.08-.04-.08-.08.04-.08.08-.08.08.04.08.08zm.62-2.74c0-.08.06-.14.14-.14s.14.06.14.14-.06.14-.14.14-.14-.06-.14-.14zm15.12-5.33s-.09-.04-.09-.09.04-.09.09-.09.09.04.09.09-.04.09-.09.09zm1.15-1.45c.14 0 .25.11.25.25s-.11.25-.25.25-.25-.11-.25-.25.11-.25.25-.25zm.63-2.11c0-.18.15-.33.33-.33s.33.15.33.33-.15.33-.33.33-.33-.15-.33-.33zm2.7.18c.5 0 .91.41.91.91s-.41.91-.91.91-.91-.41-.91-.91.41-.91.91-.91zm1.53-2.31c0-.13.11-.24.24-.24s.24.11.24.24-.11.24-.24.24-.24-.11-.24-.24zm5.79 1.47c0 .56-.4 1.01-.93 1.11-.07.01-.13.02-.2.02-.62 0-1.13-.51-1.13-1.13 0-.48.31-.9.74-1.06.12-.05.26-.07.39-.07.62 0 1.13.51 1.13 1.13zm-8.96-2.64c0-.78.63-1.41 1.41-1.41s1.41.63 1.41 1.41-.63 1.41-1.41 1.41-1.41-.63-1.41-1.41zm-2.22 1.86c-.3 0-.54-.24-.54-.54s.24-.54.54-.54.54.24.54.54-.24.54-.54.54zm.1-4.22c0 .41-.33.74-.74.74s-.74-.33-.74-.74c0-.09.02-.17.05-.24.1-.29.37-.5.69-.5.19 0 .36.08.49.19.15.13.25.33.25.54zm17.73 7.67c0 .19-.16.35-.35.35-.02 0-.04 0-.05-.01-.17-.03-.3-.17-.3-.34s.12-.3.28-.34c.02 0 .04-.01.07-.01.19 0 .35.16.35.35zm1.43-1.03c0-.47.38-.84.84-.84s.84.38.84.84-.38.84-.84.84-.84-.38-.84-.84zm3.45-.51c-.09 0-.17-.08-.17-.17s.08-.17.17-.17.17.08.17.17-.08.17-.17.17zm2.09-1.98c0 .21-.08.39-.2.53-.16.19-.39.32-.66.32-.47 0-.86-.38-.86-.86s.38-.86.86-.86c.31 0 .57.17.72.42.08.13.14.28.14.44zm-4.7-3.9c0-1.06.86-1.92 1.92-1.92s1.92.86 1.92 1.92-.86 1.92-1.92 1.92-1.92-.86-1.92-1.92zm6.32-1.02c0 .3-.24.54-.54.54-.09 0-.18-.03-.26-.07-.16-.09-.28-.26-.28-.46 0-.25.17-.45.4-.51.04-.01.09-.03.13-.03.3 0 .54.24.54.54zm-10.85 1.98c0 .58-.44 1.05-1.01 1.1-.03 0-.07.01-.1.01-.61 0-1.11-.5-1.11-1.11 0-.46.28-.86.68-1.02.13-.06.28-.09.43-.09.61 0 1.11.5 1.11 1.11zm8.28-8.38c0 .44-.11.84-.28 1.21-.46.96-1.42 1.62-2.55 1.62-1.57 0-2.84-1.27-2.84-2.84 0-.21.02-.41.07-.6.28-1.28 1.41-2.24 2.77-2.24 1.57 0 2.84 1.27 2.84 2.84zm.82 15.23c0 .12-.06.22-.14.3-.07.06-.15.1-.25.1-.22 0-.39-.18-.39-.39s.18-.39.39-.39c.1 0 .18.04.25.1.08.07.14.18.14.29zm2.61-.22c0-.2.16-.36.36-.36s.36.16.36.36-.16.36-.36.36-.36-.16-.36-.36zm5.44.39c-.19 0-.38.02-.57.03-.01-.04-.02-.07-.02-.11 0-.17.14-.3.3-.3s.3.14.3.3c0 .03 0 .05-.02.08zm-.57.03c.19-.01.38-.03.57-.03-.04.13-.15.22-.29.22-.13 0-.24-.08-.28-.19zm4.71 1.54c0-.18.15-.33.33-.33s.33.15.33.33-.15.33-.33.33-.33-.15-.33-.33zm1.93 3.08c0-.06.05-.11.11-.11s.11.05.11.11-.05.11-.11.11-.11-.05-.11-.11zm-25.09-3.58c0-.09.08-.17.17-.17s.17.08.17.17-.08.17-.17.17-.17-.08-.17-.17zm-3.03-.84c0-.14.12-.26.26-.26s.26.12.26.26-.12.26-.26.26-.26-.12-.26-.26zm3.59 8.33c0 .46-.37.82-.82.82s-.82-.37-.82-.82.37-.82.82-.82.82.37.82.82zm-.91 3.06c0 .25-.2.45-.45.45s-.45-.2-.45-.45.2-.45.45-.45.45.2.45.45zm-3.17.57c0 .07-.06.12-.12.12s-.12-.06-.12-.12.06-.12.12-.12.12.06.12.12zm1.01-2.55c0 .07-.06.13-.13.13s-.13-.06-.13-.13.06-.13.13-.13.13.06.13.13zm2.85 4.05c0 .09-.08.17-.17.17s-.17-.08-.17-.17.08-.17.17-.17.17.08.17.17zm13.73-2.12c0 .14-.11.25-.25.25s-.25-.11-.25-.25.11-.25.25-.25.25.11.25.25zm.24-4.55c0 .09-.07.16-.16.16s-.16-.07-.16-.16.07-.16.16-.16.16.07.16.16zm1.9 1.88c0 .07-.05.12-.12.12s-.12-.05-.12-.12.05-.12.12-.12.12.05.12.12zm3.44.97c0 .09-.07.16-.16.16s-.16-.07-.16-.16.07-.16.16-.16.16.07.16.16zm2.22-2.11c0 .1-.08.18-.18.18s-.18-.08-.18-.18.08-.18.18-.18.18.08.18.18zm2.02-1.35c0 .11-.09.19-.19.19s-.19-.09-.19-.19.09-.19.19-.19.19.09.19.19zm.57 2.95c0 .08-.07.15-.15.15s-.15-.07-.15-.15.07-.15.15-.15.15.07.15.15zm-22.22 1.47c0 .12-.1.22-.22.22s-.22-.1-.22-.22.1-.22.22-.22.22.1.22.22zm-21.48.93c0 .24-.19.43-.43.43s-.43-.19-.43-.43.19-.43.43-.43.43.19.43.43zm3.14-.39c0 .11-.09.2-.2.2s-.2-.09-.2-.2.09-.2.2-.2.2.09.2.2zm-.23-2.08c0 .13-.1.23-.23.23s-.23-.1-.23-.23.1-.23.23-.23.23.1.23.23zm-5.92 5.07c0 .18-.15.33-.33.33s-.33-.15-.33-.33.15-.33.33-.33.33.15.33.33zm-2.86-3.76c0 .4-.33.73-.73.73s-.73-.33-.73-.73.33-.73.73-.73.73.33.73.73zm2.2-.45c0 .21-.17.38-.38.38s-.38-.17-.38-.38.17-.38.38-.38.38.17.38.38zm-3.15 4.29c0 .14-.11.26-.26.26s-.26-.11-.26-.26.11-.26.26-.26.26.11.26.26zm-4.45-2.07c0 .1-.08.18-.18.18s-.18-.08-.18-.18.08-.18.18-.18.18.08.18.18zm3.35-4.2c0 .12-.1.22-.22.22s-.22-.1-.22-.22.1-.22.22-.22.22.1.22.22zm6.42.42c0 .11-.09.19-.19.19s-.19-.09-.19-.19.09-.19.19-.19.19.09.19.19zm.98-9.34c0 .11-.09.19-.19.19s-.19-.09-.19-.19.09-.19.19-.19.19.09.19.19zm1.3 14.6c0 .11-.09.19-.19.19s-.19-.09-.19-.19.09-.19.19-.19.19.09.19.19zm10.91-13.33c0 .08-.06.14-.14.14s-.14-.06-.14-.14.06-.14.14-.14.14.06.14.14zm34 12.05c0 .14-.11.25-.25.25s-.25-.11-.25-.25.11-.25.25-.25.25.11.25.25zm1.65-.93c0 .06-.05.12-.12.12s-.12-.05-.12-.12.05-.12.12-.12.12.05.12.12zm-5.95-.45c0 .08-.06.14-.14.14s-.14-.06-.14-.14.06-.14.14-.14.14.06.14.14z"/><rect height="2.74" rx=".71" width="23.56" x="18.63" y="81.03"/></svg>