<svg viewBox="0 0 50.27 65.13" xmlns="http://www.w3.org/2000/svg"><path d="m40.4 0c-2.27 0-2.97.38-3.79 1.31-.4.46-.37 1.14.07 1.56 1.54 1.47 2.37 2.54 2.37 3.99 0 .9-1.4 5.45-3.27 9.65-7.87 17.96-20.69 28.26-26.85 33.21l-.41.33c-.44.36-.55.99-.25 1.48l.36.57c.21.34.58.53.96.53.13 0 .27-.02.4-.07 19.14-7.28 30.27-24.6 36.23-37.83l.08-.17c.58-1.22.89-1.89 1.53-2.64l.17-.18c1.88-2.09 2.27-2.52 2.27-3.72 0-1.96-4.44-8.01-9.87-8.01z"/><path d="m7.5 16.09c2.42 4.22 3.32 5.8 5.79 5.8 1.93 0 4.64-1.71 4.64-5.5-.01-8.91-12.65-11.44-16.52-12.01-.44-.07-.88.14-1.12.52-.5.8-.34 1.84.36 2.46 3.81 3.41 5.23 5.9 6.64 8.37z"/><rect height="41.06" rx=".53" width="1.05" x="9.19" y="9.22"/><rect height="38.59" rx=".53" width="1.05" x="12.35" y="9.22"/><rect height="32.32" rx=".53" width="1.05" x="15.5" y="12.6"/><rect height="41.39" rx=".53" width="1.05" x="34.44" y="21.89"/><rect height="36.67" rx=".53" width="1.05" x="31.28" y="26.61"/><rect height="31.58" rx=".53" width="1.05" x="28.12" y="31.69"/><rect height="28.04" rx=".53" width="1.05" x="24.97" y="35.23"/><rect height="24.56" rx=".53" width="1.05" x="21.81" y="38.71"/><rect height="21.35" rx=".53" width="1.05" x="18.66" y="41.92"/><rect height="2.74" rx=".71" width="23.56" x="13.35" y="62.4"/></svg>