<svg id="圖層_1" data-name="圖層 1" xmlns="http://www.w3.org/2000/svg" viewBox="0 0 160 160"><defs><style>.cls-1{fill:#891d16;}</style></defs><path class="cls-1" d="M7.6,39.6l12.1-2V23.9h7.9V36.2l19.8-3.4,1.2,6.9-21,3.5v9.6c-.2,2.7,1,3.9,3.7,3.7h4.9c2.2.2,3.4-.9,3.5-3.4a25.65,25.65,0,0,0,.3-3q.3-2.4.3-3a1.69,1.69,0,0,1,.5.2c3.1,1,5.5,1.7,7.1,2.2-.4,3.1-.9,5.7-1.3,7.6q-.9,6.45-9.9,6H29.1c-6.5.1-9.6-2.9-9.4-9.1V44.6L8.8,46.4Z"/><path class="cls-1" d="M23.6,75.5h6.5v1.7h16v4.5h-16v1.5H48.2l-1,8.7c-.6-.1-1.3-.2-2.4-.3-1.5-.3-2.6-.6-3.5-.7l.5-2.7H17.7V95a52.13,52.13,0,0,1-1,11.8,33.1,33.1,0,0,1-4.4,9.2c-1.6-1.6-3.2-3.1-4.9-4.7,2.8-3.8,4.1-9.3,3.9-16.6V83.2H23.6Zm18.9,32.8a34.69,34.69,0,0,0,.5-4.2,29,29,0,0,0,5.5,1.5,24.72,24.72,0,0,1-1.2,5.4c-.4,2.6-2.1,3.9-5,3.9H37.8c-3.2.1-4.9-1.6-4.9-5.2v-2.9H27c0,3.8-2.4,6.9-7.2,9.2-1.3-1.3-2.9-2.7-4.5-4.2,4.4-1.3,6.3-4.3,5.9-8.7v-1.3h18v6.5c0,.9.4,1.3,1.2,1.3h.8C41.9,109.6,42.3,109.2,42.5,108.3ZM24.4,88.8h6.2v1.5l8.9-.5.3,4.4-9.2.5q-.15,1.65,3,1.5h4.7c1.3,0,2.1-.4,2.2-1.3a17.78,17.78,0,0,0,.3-2,5.76,5.76,0,0,0,.2-1c1.9.4,3.7,1,5.5,1.5a38.89,38.89,0,0,1-1,4c-.7,2.1-2.5,3.2-5.4,3.2H29.6c-3.5,0-5.2-1.8-5.2-5.4V95l-5.5.3L18.5,91l5.9-.3Z"/><path class="cls-1" d="M58.9,112.9a1.9,1.9,0,0,1-1.3-.5,3.92,3.92,0,0,1-.7-1.7,11.74,11.74,0,0,0-1.8-4.5,11.49,11.49,0,0,0-3-2.8l1-1.2a12.6,12.6,0,0,1,2.6,1.3,17.83,17.83,0,0,1,2.6,2.2,15.1,15.1,0,0,1,2,2.6,5.21,5.21,0,0,1,.8,2.5C61.1,112.3,60.4,112.9,58.9,112.9Z"/><path class="cls-1" d="M85.2,75.4h7.1v3.4h16.6v5.7H92.3v2h15.4v22.7c0,3.9-1.8,5.9-5.5,6-1.6.1-4,.2-7.4.2a47.76,47.76,0,0,0-1.2-5.7h4.5c2,.1,3-.8,2.9-2.9V92H77v23.2H70.3V86.4H85.2v-2H68.9V78.7H85.2Zm6.6,16.9,6.4.5-1.7,3h3v5H92.1v1.7h8.1v5.2H92.1v6.5H85.7v-6.5H77.6v-5.2h8.1v-1.7H78.3v-5h3l-1.7-3,6.4-.5,1.8,3.5h2Z"/><path class="cls-1" d="M111.9,77.7h40v6.9H134.3v8.1l3.2-3.7c4.8,3.4,9.3,6.7,13.4,9.9l-4.9,5.9c-4.4-3.7-8.3-6.8-11.8-9.4v20h-7.7V84.6H111.9V77.7Z"/><path class="cls-1" d="M25.9,127.2a2,2,0,0,1,.9.2,3.33,3.33,0,0,1,.6.3c.3.2.5.1.5-.5h.3v2.3h-.3a3.81,3.81,0,0,0-.3-1,1.56,1.56,0,0,0-.6-.8,1.69,1.69,0,0,0-1-.3,1.14,1.14,0,0,0-.8.3,1,1,0,0,0-.3.8,1.45,1.45,0,0,0,.2.7,2.65,2.65,0,0,0,.6.5l.9.6a3.11,3.11,0,0,1,.9.7c.2.3.5.5.7.8a1.69,1.69,0,0,1,.3,1,2,2,0,0,1-.3,1.1,1.46,1.46,0,0,1-.9.6,4.3,4.3,0,0,1-1.2.2h-.6a4.33,4.33,0,0,1-.5-.1c-.1,0-.2-.1-.3-.2s-.2-.1-.3-.2-.2-.1-.2,0-.1.2-.2.5h-.3v-2.8H24a13,13,0,0,0,.3,1.3,1.46,1.46,0,0,0,.6.9,1.8,1.8,0,0,0,1.1.3,1.27,1.27,0,0,0,.6-.1,1.76,1.76,0,0,0,.5-.4,1.55,1.55,0,0,0,.2-.8,1.28,1.28,0,0,0-.4-1,10.47,10.47,0,0,0-1.1-.8l-.9-.6a2.34,2.34,0,0,1-.7-.7,1.82,1.82,0,0,1,0-2,1.34,1.34,0,0,1,.7-.6A1.8,1.8,0,0,1,25.9,127.2Z"/><path class="cls-1" d="M31.9,127.2v5.9a1.55,1.55,0,0,0,.2.8,1.55,1.55,0,0,0,.8.2v.3H29.6v-.3a1.55,1.55,0,0,0,.8-.2c.2-.1.2-.4.2-.8v-4.3a2,2,0,0,0-.2-.9c-.1-.2-.4-.3-.8-.3v-.3h1.7A1.49,1.49,0,0,0,31.9,127.2Zm-.7-3.3a1.06,1.06,0,1,1-.6.3A.6.6,0,0,1,31.2,123.9Z"/><path class="cls-1" d="M38.2,127.2a2.77,2.77,0,0,1,.9.1,2.09,2.09,0,0,1,.6.4,1.61,1.61,0,0,1,.4.7,3.42,3.42,0,0,1,.1,1.1v3.7a1.55,1.55,0,0,0,.2.8,1.55,1.55,0,0,0,.8.2v.3H38v-.3a1.17,1.17,0,0,0,.7-.2,1.29,1.29,0,0,0,.2-.8v-4a2.2,2.2,0,0,0-.1-.8.86.86,0,0,0-.3-.6,1.45,1.45,0,0,0-.7-.2,1.69,1.69,0,0,0-1,.3,2.18,2.18,0,0,0-.7.9,2.74,2.74,0,0,0-.2,1.3v3a1.55,1.55,0,0,0,.2.8,1.17,1.17,0,0,0,.7.2v.3H33.6v-.3a1.55,1.55,0,0,0,.8-.2c.2-.1.2-.4.2-.8v-4.3a2,2,0,0,0-.2-.9c-.1-.2-.4-.3-.8-.3v-.3h1.7c.2,0,.5-.1.7-.1v1.6a2.29,2.29,0,0,1,1-1.3A2.38,2.38,0,0,1,38.2,127.2Z"/><path class="cls-1" d="M45.2,127.2a2.77,2.77,0,0,1,.9.1,4.88,4.88,0,0,1,.7.3,1.21,1.21,0,0,1,.5.5,1,1,0,0,1,0,1.2.73.73,0,0,1-1,0c-.2-.1-.2-.3-.2-.5a.76.76,0,0,1,.2-.5.52.52,0,0,1,.4-.2,1,1,0,0,0-.5-.4,1.33,1.33,0,0,0-1.4,0,2.65,2.65,0,0,0-.6.5,9.29,9.29,0,0,0-.5,1,7,7,0,0,0-.2,1.6,5,5,0,0,0,.3,1.9,2,2,0,0,0,.7,1,2,2,0,0,0,1.7.2,2.51,2.51,0,0,0,.7-.4,5.55,5.55,0,0,0,.6-.8l.3.1a2,2,0,0,1-.5.9,2.7,2.7,0,0,1-.8.7,2.38,2.38,0,0,1-1.2.3,2.41,2.41,0,0,1-1.5-.4,2.85,2.85,0,0,1-1.1-1.3,3.81,3.81,0,0,1-.4-1.9,4.21,4.21,0,0,1,.4-2,2.85,2.85,0,0,1,1.1-1.3A1.45,1.45,0,0,1,45.2,127.2Z"/><path class="cls-1" d="M51.8,127.2a2.49,2.49,0,0,1,1.9.7,3.17,3.17,0,0,1,.7,2.3H49.6v-.3h3.5a4.48,4.48,0,0,0-.1-1.2,2.47,2.47,0,0,0-.4-.9,1.14,1.14,0,0,0-.8-.3,1.38,1.38,0,0,0-1.1.6,4.3,4.3,0,0,0-.6,2v1.1a3.81,3.81,0,0,0,.3,1.6,2.72,2.72,0,0,0,.8,1,1.93,1.93,0,0,0,1,.3,2.2,2.2,0,0,0,.8-.1,1.61,1.61,0,0,0,.7-.4,2.18,2.18,0,0,0,.5-.8l.3.1a4.05,4.05,0,0,1-.5.9,2.18,2.18,0,0,1-.9.7,2.38,2.38,0,0,1-1.2.3,3.1,3.1,0,0,1-1.7-.5,2.85,2.85,0,0,1-1.1-1.3,3.66,3.66,0,0,1-.4-1.8,4.64,4.64,0,0,1,.4-2.1,2.85,2.85,0,0,1,1.1-1.3A2,2,0,0,1,51.8,127.2Z"/><path class="cls-1" d="M61.8,127.2a2.41,2.41,0,0,1,1.5.4,1.49,1.49,0,0,1,.6,1.3,1.69,1.69,0,0,1-.3,1,5.5,5.5,0,0,1-.7.9l-.9.9a6.47,6.47,0,0,1-.9.8,2.7,2.7,0,0,0-.7.8h2.8a1,1,0,0,0,.7-.2.76.76,0,0,0,.2-.5h.2v1.8H59v-.2l1-1a5.73,5.73,0,0,0,1.1-1.1,5.08,5.08,0,0,0,.9-1.3,3.77,3.77,0,0,0,.4-1.6,1.25,1.25,0,0,0-.4-1.1,1.82,1.82,0,0,0-2,0,2.09,2.09,0,0,0-.8,1L59,129a1.56,1.56,0,0,1,.6-.8,1.46,1.46,0,0,1,.9-.6A2,2,0,0,1,61.8,127.2Z"/><path class="cls-1" d="M69.2,127.2a3.29,3.29,0,0,1,1.7.4,3,3,0,0,1,1.2,1.3,4.06,4.06,0,0,1,.4,1.9,4.48,4.48,0,0,1-.4,2,4.07,4.07,0,0,1-1.2,1.4,3.45,3.45,0,0,1-1.8.5,3.29,3.29,0,0,1-1.7-.4,3,3,0,0,1-1.2-1.3,4.71,4.71,0,0,1,0-3.8,4.07,4.07,0,0,1,1.2-1.4A2.33,2.33,0,0,1,69.2,127.2Zm-.1.2a1.51,1.51,0,0,0-1.4.9,4.76,4.76,0,0,0-.6,2.6,5.62,5.62,0,0,0,.3,2,2.42,2.42,0,0,0,.8,1.1,2,2,0,0,0,1.1.3,1.76,1.76,0,0,0,1.5-.9,4.76,4.76,0,0,0,.6-2.6,5.62,5.62,0,0,0-.3-2,1.88,1.88,0,0,0-.8-1.1A3,3,0,0,0,69.1,127.4Z"/><path class="cls-1" d="M76.6,127.2a2.41,2.41,0,0,1,1.5.4,1.49,1.49,0,0,1,.6,1.3,1.69,1.69,0,0,1-.3,1,5.5,5.5,0,0,1-.7.9l-.9.9a6.47,6.47,0,0,1-.9.8,2.7,2.7,0,0,0-.7.8H78a1,1,0,0,0,.7-.2.76.76,0,0,0,.2-.5h.2v1.8H74v-.2l1-1a5.73,5.73,0,0,0,1.1-1.1,5.08,5.08,0,0,0,.9-1.3,3.77,3.77,0,0,0,.4-1.6,1.25,1.25,0,0,0-.4-1.1,1.82,1.82,0,0,0-2,0,2.09,2.09,0,0,0-.8,1L74,129a1.56,1.56,0,0,1,.6-.8,1.46,1.46,0,0,1,.9-.6A1.25,1.25,0,0,1,76.6,127.2Z"/><path class="cls-1" d="M83.2,127.2a2.41,2.41,0,0,1,1.5.4,1.49,1.49,0,0,1,.6,1.3,1.69,1.69,0,0,1-.3,1,5.5,5.5,0,0,1-.7.9l-.9.9a6.47,6.47,0,0,1-.9.8,2.7,2.7,0,0,0-.7.8h2.8a1,1,0,0,0,.7-.2.76.76,0,0,0,.2-.5h.2v1.8H80.4v-.2l1-1a5.73,5.73,0,0,0,1.1-1.1,5.08,5.08,0,0,0,.9-1.3,3.77,3.77,0,0,0,.4-1.6,1.25,1.25,0,0,0-.4-1.1,1.82,1.82,0,0,0-2,0,2.09,2.09,0,0,0-.8,1l-.2-.1a1.56,1.56,0,0,1,.6-.8,1.46,1.46,0,0,1,.9-.6A2,2,0,0,1,83.2,127.2Z"/><rect class="cls-1" x="6.6" y="129.9" width="14.5" height="0.6"/><rect class="cls-1" x="89.4" y="129.9" width="14.5" height="0.6"/></svg>